<svg width="18" height="18" viewBox="0 0 18 18" fill="none" xmlns="http://www.w3.org/2000/svg">
<path d="M9 15.75L15.0983 12.594C15.3353 12.471 15.4537 12.4102 15.54 12.3195C15.6164 12.2399 15.6743 12.1443 15.7095 12.0397C15.75 11.9205 15.75 11.7877 15.75 11.5207V5.64975M9 15.75L2.90175 12.594C2.66475 12.471 2.54625 12.4102 2.46 12.3195C2.38361 12.2399 2.32573 12.1443 2.2905 12.0397C2.25 11.9205 2.25 11.787 2.25 11.5192V5.64975M9 15.75V8.95275M15.75 5.64975L9 8.95275M15.75 5.64975L12.375 3.90225M2.25 5.64975L8.45175 2.4405C8.65275 2.337 8.7525 2.2845 8.85825 2.26425C8.95189 2.24623 9.04811 2.24623 9.14175 2.26425C9.24675 2.2845 9.34725 2.337 9.5475 2.4405L12.375 3.90225M2.25 5.64975L5.625 7.302M9 8.95275L5.625 7.30125M12.375 3.90225L5.625 7.30125M5.625 7.30125V8.95275" stroke="white" stroke-linecap="round" stroke-linejoin="round"/>
</svg>
