<svg width="24" height="25" viewBox="0 0 24 25" fill="none" xmlns="http://www.w3.org/2000/svg">
<g clip-path="url(#clip0_236_1904)">
<path d="M0.512578 12.3563C0.512016 14.3728 1.04302 16.3417 2.0527 18.0771L0.416016 24.0066L6.53152 22.4156C8.22299 23.3292 10.1181 23.808 12.044 23.8081H12.0491C18.4067 23.8081 23.582 18.6748 23.5847 12.3653C23.586 9.30792 22.3871 6.43295 20.2089 4.26997C18.0311 2.10718 15.1347 0.915458 12.0486 0.914062C5.6902 0.914062 0.515203 6.04709 0.512578 12.3563Z" fill="url(#paint0_linear_236_1904)"/>
<path d="M0.100313 12.3527C0.0996563 14.4417 0.649687 16.481 1.69537 18.2786L0 24.4207L6.33478 22.7726C8.08022 23.7168 10.0454 24.2147 12.0451 24.2154H12.0502C18.636 24.2154 23.9972 18.8975 24 12.3621C24.0011 9.19488 22.7591 6.21656 20.5031 3.97609C18.2468 1.73591 15.2468 0.501302 12.0502 0.5C5.46337 0.5 0.102938 5.81721 0.100313 12.3527ZM3.87291 17.969L3.63637 17.5965C2.64206 16.0277 2.11725 14.2149 2.118 12.3534C2.12006 6.9213 6.57544 2.50186 12.054 2.50186C14.7071 2.50298 17.2005 3.52921 19.0759 5.39116C20.9512 7.2533 21.9831 9.72865 21.9824 12.3614C21.98 17.7935 17.5245 22.2135 12.0502 22.2135H12.0463C10.2638 22.2126 8.51569 21.7376 6.99113 20.84L6.62831 20.6265L2.86912 21.6045L3.87291 17.969Z" fill="url(#paint1_linear_236_1904)"/>
<path d="M9.06383 7.39746C8.84014 6.90416 8.60473 6.89421 8.39202 6.88556C8.21783 6.87811 8.0187 6.87867 7.81977 6.87867C7.62064 6.87867 7.29711 6.953 7.02364 7.24928C6.74989 7.54583 5.97852 8.26249 5.97852 9.72007C5.97852 11.1776 7.04848 12.5864 7.19764 12.7843C7.34698 12.9817 9.26323 16.0686 12.2981 17.2562C14.8204 18.243 15.3336 18.0468 15.881 17.9973C16.4285 17.948 17.6477 17.2808 17.8964 16.589C18.1453 15.8973 18.1453 15.3043 18.0707 15.1804C17.996 15.057 17.7969 14.9829 17.4983 14.8348C17.1997 14.6867 15.7317 13.9698 15.458 13.871C15.1843 13.7722 14.9853 13.7229 14.7861 14.0195C14.587 14.3157 14.0152 14.9829 13.841 15.1804C13.6669 15.3785 13.4926 15.4031 13.1941 15.255C12.8953 15.1063 11.9337 14.7938 10.7929 13.7846C9.90523 12.9993 9.30598 12.0296 9.1318 11.7329C8.95761 11.4367 9.11314 11.2762 9.26286 11.1285C9.39702 10.9958 9.56155 10.7826 9.71098 10.6096C9.85986 10.4366 9.90955 10.3132 10.0091 10.1156C10.1088 9.91783 10.0589 9.74481 9.98436 9.59663C9.90955 9.44844 9.32933 7.98323 9.06383 7.39746Z" fill="white"/>
</g>
<defs>
<linearGradient id="paint0_linear_236_1904" x1="1158.85" y1="2310.17" x2="1158.85" y2="0.914062" gradientUnits="userSpaceOnUse">
<stop stop-color="#1FAF38"/>
<stop offset="1" stop-color="#60D669"/>
</linearGradient>
<linearGradient id="paint1_linear_236_1904" x1="1200" y1="2392.57" x2="1200" y2="0.5" gradientUnits="userSpaceOnUse">
<stop stop-color="#F9F9F9"/>
<stop offset="1" stop-color="white"/>
</linearGradient>
<clipPath id="clip0_236_1904">
<rect width="24" height="24" fill="white" transform="translate(0 0.5)"/>
</clipPath>
</defs>
</svg>
