<svg width="15" height="15" viewBox="0 0 15 15" fill="none" xmlns="http://www.w3.org/2000/svg">
<path d="M4.875 1.66825C4.64294 1.66825 4.42038 1.75603 4.25628 1.91227C4.09219 2.0685 4 2.28041 4 2.50136C4 2.72231 4.09219 2.93422 4.25628 3.09046C4.42038 3.24669 4.64294 3.33447 4.875 3.33447C5.10706 3.33447 5.32962 3.24669 5.49372 3.09046C5.65781 2.93422 5.75 2.72231 5.75 2.50136C5.75 2.28041 5.65781 2.0685 5.49372 1.91227C5.32962 1.75603 5.10706 1.66825 4.875 1.66825ZM2.39875 1.66825C2.57953 1.18044 2.91477 0.75803 3.35827 0.459242C3.80178 0.160453 4.3317 0 4.875 0C5.4183 0 5.94822 0.160453 6.39173 0.459242C6.83523 0.75803 7.17047 1.18044 7.35125 1.66825H13.625C13.8571 1.66825 14.0796 1.75603 14.2437 1.91227C14.4078 2.0685 14.5 2.28041 14.5 2.50136C14.5 2.72231 14.4078 2.93422 14.2437 3.09046C14.0796 3.24669 13.8571 3.33447 13.625 3.33447H7.35125C7.17047 3.82228 6.83523 4.24469 6.39173 4.54348C5.94822 4.84227 5.4183 5.00272 4.875 5.00272C4.3317 5.00272 3.80178 4.84227 3.35827 4.54348C2.91477 4.24469 2.57953 3.82228 2.39875 3.33447H1.375C1.14294 3.33447 0.920376 3.24669 0.756282 3.09046C0.592187 2.93422 0.5 2.72231 0.5 2.50136C0.5 2.28041 0.592187 2.0685 0.756282 1.91227C0.920376 1.75603 1.14294 1.66825 1.375 1.66825H2.39875ZM10.125 6.66689C9.89294 6.66689 9.67038 6.75467 9.50628 6.9109C9.34219 7.06714 9.25 7.27905 9.25 7.5C9.25 7.72095 9.34219 7.93286 9.50628 8.08909C9.67038 8.24533 9.89294 8.33311 10.125 8.33311C10.3571 8.33311 10.5796 8.24533 10.7437 8.08909C10.9078 7.93286 11 7.72095 11 7.5C11 7.27905 10.9078 7.06714 10.7437 6.9109C10.5796 6.75467 10.3571 6.66689 10.125 6.66689ZM7.64875 6.66689C7.82953 6.17908 8.16477 5.75667 8.60827 5.45788C9.05178 5.15909 9.5817 4.99864 10.125 4.99864C10.6683 4.99864 11.1982 5.15909 11.6417 5.45788C12.0852 5.75667 12.4205 6.17908 12.6012 6.66689H13.625C13.8571 6.66689 14.0796 6.75467 14.2437 6.9109C14.4078 7.06714 14.5 7.27905 14.5 7.5C14.5 7.72095 14.4078 7.93286 14.2437 8.08909C14.0796 8.24533 13.8571 8.33311 13.625 8.33311H12.6012C12.4205 8.82092 12.0852 9.24333 11.6417 9.54212C11.1982 9.84091 10.6683 10.0014 10.125 10.0014C9.5817 10.0014 9.05178 9.84091 8.60827 9.54212C8.16477 9.24333 7.82953 8.82092 7.64875 8.33311H1.375C1.14294 8.33311 0.920376 8.24533 0.756282 8.08909C0.592187 7.93286 0.5 7.72095 0.5 7.5C0.5 7.27905 0.592187 7.06714 0.756282 6.9109C0.920376 6.75467 1.14294 6.66689 1.375 6.66689H7.64875ZM4.875 11.6655C4.64294 11.6655 4.42038 11.7533 4.25628 11.9095C4.09219 12.0658 4 12.2777 4 12.4986C4 12.7196 4.09219 12.9315 4.25628 13.0877C4.42038 13.244 4.64294 13.3317 4.875 13.3317C5.10706 13.3317 5.32962 13.244 5.49372 13.0877C5.65781 12.9315 5.75 12.7196 5.75 12.4986C5.75 12.2777 5.65781 12.0658 5.49372 11.9095C5.32962 11.7533 5.10706 11.6655 4.875 11.6655ZM2.39875 11.6655C2.57953 11.1777 2.91477 10.7553 3.35827 10.4565C3.80178 10.1577 4.3317 9.99728 4.875 9.99728C5.4183 9.99728 5.94822 10.1577 6.39173 10.4565C6.83523 10.7553 7.17047 11.1777 7.35125 11.6655H13.625C13.8571 11.6655 14.0796 11.7533 14.2437 11.9095C14.4078 12.0658 14.5 12.2777 14.5 12.4986C14.5 12.7196 14.4078 12.9315 14.2437 13.0877C14.0796 13.244 13.8571 13.3317 13.625 13.3317H7.35125C7.17047 13.8196 6.83523 14.242 6.39173 14.5408C5.94822 14.8395 5.4183 15 4.875 15C4.3317 15 3.80178 14.8395 3.35827 14.5408C2.91477 14.242 2.57953 13.8196 2.39875 13.3317H1.375C1.14294 13.3317 0.920376 13.244 0.756282 13.0877C0.592187 12.9315 0.5 12.7196 0.5 12.4986C0.5 12.2777 0.592187 12.0658 0.756282 11.9095C0.920376 11.7533 1.14294 11.6655 1.375 11.6655H2.39875Z" fill="#015FEA"/>
</svg>
