<svg width="24" height="24" viewBox="0 0 24 24" fill="none" xmlns="http://www.w3.org/2000/svg">
<path d="M13.9334 22.9058L14.5384 21.8833L13.0984 21.0305L12.4923 22.053L13.9334 22.9058ZM9.46158 21.8833L10.0666 22.9058L11.5066 22.053L10.9027 21.0305L9.46158 21.8833ZM12.4923 22.053C12.4401 22.1365 12.3675 22.2053 12.2814 22.2531C12.1953 22.3008 12.0985 22.3258 12 22.3258C11.9015 22.3258 11.8047 22.3008 11.7186 22.2531C11.6325 22.2053 11.5599 22.1365 11.5077 22.053L10.0666 22.9058C10.9295 24.3647 13.0694 24.3647 13.9334 22.9058L12.4934 22.053H12.4923ZM10.3256 1.6744H13.6744V4.64879e-07H10.3256V1.6744ZM22.3256 10.3255V11.4417H24V10.3255H22.3256ZM1.67442 11.4417V10.3255H0V11.4417H1.67442ZM0 11.4417C0 12.731 -5.406e-08 13.739 0.0558139 14.5528C0.111628 15.3732 0.226605 16.0564 0.48893 16.6882L2.03609 16.0474C1.872 15.6545 1.776 15.1745 1.72577 14.4389C1.67442 13.6955 1.67442 12.7533 1.67442 11.4417H0ZM7.31498 18.9676C5.91293 18.943 5.17842 18.8537 4.60242 18.6149L3.96279 20.162C4.8614 20.5348 5.88391 20.6185 7.28595 20.6431L7.31498 18.9676ZM0.48893 16.6882C0.811496 17.4669 1.2843 18.1746 1.88035 18.7706C2.4764 19.3666 3.18401 19.8394 3.96279 20.162L4.60242 18.6149C3.44001 18.1334 2.5176 17.2098 2.03609 16.0474L0.48893 16.6882ZM22.3256 11.4417C22.3256 12.7533 22.3256 13.6955 22.2742 14.4389C22.224 15.1745 22.128 15.6545 21.965 16.0474L23.5111 16.6882C23.7734 16.0564 23.8884 15.3732 23.9453 14.5528C24.0011 13.739 24 12.731 24 11.4417H22.3256ZM16.714 20.6409C18.1161 20.6174 19.1386 20.5348 20.0372 20.162L19.3965 18.6149C18.8216 18.8537 18.0871 18.943 16.6861 18.9676L16.714 20.642V20.6409ZM21.965 16.0474C21.4835 17.2098 20.56 18.1334 19.3976 18.6149L20.0372 20.162C20.816 19.8394 21.5236 19.3666 22.1197 18.7706C22.7157 18.1746 23.1885 17.4669 23.5111 16.6882L21.965 16.0474ZM13.6744 1.6744C15.5174 1.6744 16.8413 1.6744 17.8739 1.77375C18.8941 1.87086 19.5427 2.05616 20.0607 2.37318L20.9347 0.945478C20.1098 0.440925 19.1743 0.21544 18.0324 0.106046C16.9027 -0.00111577 15.485 4.64879e-07 13.6744 4.64879e-07V1.6744ZM24 10.3255C24 8.51488 24 7.09834 23.8928 5.96756C23.7846 4.82562 23.5591 3.88907 23.0545 3.06527L21.6257 3.9393C21.9438 4.45725 22.1291 5.1058 22.2262 6.12718C22.3245 7.15861 22.3256 8.48251 22.3256 10.3255H24ZM20.0595 2.37318C20.6982 2.76421 21.2353 3.30088 21.6268 3.9393L23.0545 3.06527C22.5251 2.20125 21.7987 1.47484 20.9347 0.945478L20.0607 2.3743L20.0595 2.37318ZM10.3256 4.64879e-07C8.51498 4.64879e-07 7.09842 4.9901e-07 5.96763 0.106046C4.82567 0.21544 3.88912 0.440925 3.0653 0.945478L3.93935 2.3743C4.4573 2.05616 5.10586 1.87086 6.12726 1.77375C7.1587 1.67552 8.4826 1.6744 10.3256 1.6744V4.64879e-07ZM1.67442 10.3255C1.67442 8.48251 1.67442 7.15861 1.77377 6.12607C1.87088 5.1058 2.05619 4.45725 2.37321 3.9393L0.945488 3.06638C0.44093 3.89019 0.215442 4.82562 0.106047 5.96756C3.32677e-08 7.09945 0 8.51488 0 10.3255H1.67442ZM3.0653 0.945478C2.20128 1.47484 1.47486 2.20237 0.945488 3.06638L2.37433 3.9393C2.76518 3.30114 3.30145 2.76448 3.93935 2.37318L3.0653 0.945478ZM10.9016 21.0305C10.6761 20.6476 10.4774 20.3093 10.2832 20.0437C10.0834 19.7524 9.82386 19.5069 9.52186 19.3237L8.68019 20.7715C8.73265 20.8027 8.80521 20.8585 8.93023 21.0305C9.0653 21.2158 9.21823 21.4725 9.46158 21.8833L10.9016 21.0305ZM7.28595 20.6409C7.77712 20.6498 8.08633 20.6565 8.32298 20.6822C8.544 20.7067 8.62995 20.7425 8.68019 20.7715L9.52186 19.3237C9.20931 19.1505 8.86334 19.0462 8.50716 19.0178C8.17451 18.981 7.77488 18.9754 7.31498 18.9676L7.28595 20.6431V20.6409ZM14.5384 21.8833C14.7818 21.4736 14.9347 21.2158 15.0698 21.0305C15.1948 20.8585 15.2673 20.8027 15.3198 20.7715L14.4781 19.3237C14.1544 19.5134 13.92 19.7646 13.7168 20.0437C13.5237 20.3093 13.3239 20.6465 13.0973 21.0305L14.5384 21.8833ZM16.6861 18.9676C16.2262 18.9754 15.8255 18.981 15.4928 19.0178C15.1457 19.0569 14.8052 19.1339 14.4781 19.3237L15.3198 20.7715C15.37 20.7425 15.456 20.7067 15.677 20.6822C15.9137 20.6565 16.224 20.6487 16.7152 20.6409L16.6861 18.9665V18.9676Z" fill="#616161"/>
<path d="M7.53516 10.8836H7.5452ZM11.9902 10.8836H12.0003ZM16.4553 10.8836H16.4654Z" fill="#616161"/>
<path d="M7.53516 10.8836H7.5452M11.9902 10.8836H12.0003M16.4553 10.8836H16.4654" stroke="#55565A" stroke-width="2" stroke-linecap="round" stroke-linejoin="round"/>
</svg>
