<svg width="18" height="18" viewBox="0 0 18 18" fill="none" xmlns="http://www.w3.org/2000/svg">
<path d="M3.56826 7.91346C4.14846 7.91388 4.71155 7.72544 5.16492 7.37912L6.64528 7.95543L6.88856 7.52448C6.93234 7.44736 6.98396 7.37456 7.04266 7.30712L7.54991 6.8151L6.08132 5.96411C6.19093 5.46738 6.13697 4.95037 5.92686 4.48417C5.71676 4.01797 5.36082 3.62548 4.90799 3.36067C4.45517 3.09587 3.92771 2.97176 3.39813 3.0054C2.86856 3.03905 2.36289 3.2288 1.95065 3.54856C1.53842 3.86833 1.23988 4.3024 1.09607 4.79108C0.952269 5.27977 0.97027 5.79907 1.1476 6.27757C1.32493 6.75607 1.65288 7.17027 2.08635 7.46321C2.51982 7.75615 3.03752 7.91344 3.56826 7.91346ZM3.56826 4.09188C3.85047 4.09188 4.12634 4.17193 4.36098 4.3219C4.59563 4.47187 4.77851 4.68503 4.88651 4.93442C4.9945 5.18382 5.02276 5.45824 4.96771 5.723C4.91265 5.98775 4.77675 6.23095 4.5772 6.42182C4.37766 6.6127 4.12341 6.74269 3.84663 6.79535C3.56985 6.84802 3.28295 6.82099 3.02223 6.71769C2.7615 6.61438 2.53866 6.43945 2.38187 6.215C2.22509 5.99055 2.14141 5.72667 2.14141 5.45673C2.14141 5.09475 2.29174 4.74759 2.55932 4.49164C2.82691 4.23568 3.18984 4.09188 3.56826 4.09188Z" fill="white"/>
<path d="M16.9997 6.03682L16.8028 5.60758C16.643 5.25203 16.277 5.06164 15.6335 4.99851C15.2725 4.96439 14.6721 4.9562 13.861 5.12852C13.1475 5.28035 9.50404 6.09073 7.97695 7.1287C7.2546 7.61971 7.11869 8.27756 7.01168 8.8061C6.91251 9.28858 6.83332 9.66971 6.36959 10.0003C5.83452 10.3805 5.39683 10.5593 5.17174 10.635C4.69584 10.2736 4.10101 10.086 3.4937 10.1057C2.8864 10.1254 2.30625 10.3512 1.85707 10.7427C1.40789 11.1341 1.11899 11.6657 1.04208 12.2423C0.965156 12.8188 1.10524 13.4028 1.43725 13.8896C1.76926 14.3764 2.27153 14.7343 2.8542 14.8993C3.43686 15.0643 4.06188 15.0256 4.61743 14.7901C5.17297 14.5546 5.62277 14.1376 5.88635 13.6139C6.14993 13.0902 6.21008 12.4939 6.05604 11.9316L16.9997 6.03682ZM8.99073 9.00537C8.87785 9.00537 8.7675 8.97335 8.67364 8.91336C8.57978 8.85337 8.50663 8.76811 8.46343 8.66835C8.42023 8.56859 8.40893 8.45882 8.43095 8.35292C8.45298 8.24702 8.50733 8.14974 8.58715 8.07339C8.66697 7.99704 8.76867 7.94505 8.87938 7.92398C8.9901 7.90291 9.10485 7.91373 9.20914 7.95505C9.31343 7.99637 9.40257 8.06634 9.46529 8.15612C9.528 8.2459 9.56147 8.35145 9.56147 8.45943C9.56147 8.53112 9.54671 8.60212 9.51803 8.66835C9.48935 8.73459 9.44731 8.79477 9.39431 8.84547C9.34131 8.89616 9.27839 8.93638 9.20914 8.96381C9.1399 8.99125 9.06568 9.00537 8.99073 9.00537ZM3.56867 13.9188C3.28646 13.9188 3.01059 13.8388 2.77595 13.6888C2.5413 13.5388 2.35842 13.3257 2.25042 13.0763C2.14243 12.8269 2.11417 12.5525 2.16923 12.2877C2.22428 12.023 2.36018 11.7798 2.55973 11.5889C2.75928 11.398 3.01352 11.268 3.2903 11.2154C3.56709 11.1627 3.85398 11.1897 4.1147 11.293C4.37543 11.3963 4.59827 11.5713 4.75506 11.7957C4.91184 12.0202 4.99553 12.284 4.99553 12.554C4.99553 12.916 4.8452 13.2631 4.57761 13.5191C4.31002 13.775 3.9471 13.9188 3.56867 13.9188Z" fill="white"/>
<path d="M12.1414 9.13721L9.1543 10.7812L10.1399 11.2275L10.269 11.2868C10.9361 11.5956 12.7104 12.4173 14.5221 12.5196C14.6609 12.5275 14.7886 12.5312 14.9067 12.5312C15.6447 12.5302 16.0371 12.349 16.2779 12.2126L17.0002 11.7349L12.1414 9.13721Z" fill="white"/>
</svg>
