<svg width="16" height="24" viewBox="0 0 16 24" fill="none" xmlns="http://www.w3.org/2000/svg">
<path d="M7.99931 0C5.02202 0 2.60156 2.55601 2.60156 5.70003C2.60156 8.78404 4.88566 11.2801 7.86294 11.3881C7.95385 11.3761 8.04476 11.3761 8.11294 11.3881H8.16976H8.19249C11.1016 11.2801 13.3857 8.78404 13.397 5.70003C13.397 2.55601 10.9766 0 7.99931 0Z" fill="#015FEA"/>
<path d="M13.7727 14.58C10.6023 12.3479 5.43183 12.3479 2.23864 14.58C0.795457 15.6 0 16.98 0 18.456C0 19.932 0.795457 21.3 2.22728 22.308C3.81819 23.436 5.90906 24 7.99998 24C10.0909 24 12.1818 23.436 13.7727 22.308C15.2045 21.288 16 19.92 16 18.432C15.9886 16.956 15.2045 15.588 13.7727 14.58Z" fill="#015FEA"/>
</svg>
