<svg width="83" height="70" viewBox="0 0 83 70" fill="none" xmlns="http://www.w3.org/2000/svg">
<path id="Vector 3" d="M55.1209 6.76845H15.1366C10.5513 7.12468 8.16695 8.54962 5.41559 12.8244C3.4882 18.6125 2.70416 21.9407 5.41559 29.0331C7.10145 32.4489 11.285 34.7328 12.9356 35.0891L13.8527 46.8448L15.1366 35.0891C20.3742 34.0494 22.2213 32.0542 24.4907 27.1629C27.4109 21.8293 29.501 20.2289 33.8448 19.2366C42.1035 18.457 45.3587 21.6553 49.8019 30.9924C52.7684 37.2265 50.4111 46.841 44.4828 48.9822H8.35023C1.1972 49.3384 -0.817216 54.5519 0.279869 61.4504C1.30816 67.9927 4.6818 70 8.35023 70H73.2789C79.5151 69.6438 83 65.9033 83 60.0254C83 52.1883 80.9824 51.1196 73.2789 48.9822V30.9924C77.5681 34.0869 81.8995 34.3766 82.0828 30.9924V12.8244C80.1289 9.88058 77.7986 10.6822 73.2789 12.8244C72.3121 8.72387 70.9586 7.05215 65.0252 6.76845V0H55.1209V6.76845Z" fill="#015FEA"/>
</svg>
