<svg width="16" height="24" viewBox="0 0 16 24" fill="none" xmlns="http://www.w3.org/2000/svg">
<path d="M7.99902 1C10.2992 1 12.2708 2.92982 12.3916 5.4541L12.3975 5.7002C12.386 8.29192 10.4855 10.2932 8.1709 10.3877H8.16309C8.05239 10.3773 7.9436 10.3771 7.84375 10.3848C5.47168 10.269 3.60164 8.26801 3.60156 5.7002C3.60156 3.05653 5.62479 1.00016 7.99902 1Z" stroke="#55565A" stroke-width="2"/>
<path d="M8.01465 13.9059C9.81925 13.906 11.5781 14.3605 12.9316 15.2204L13.1973 15.3981C14.3405 16.2031 14.9175 17.2095 14.9922 18.2341L15 18.4401C14.9973 19.4662 14.4881 20.4843 13.415 21.3268L13.1943 21.4919C11.8041 22.4776 9.92609 22.9997 8 22.9997C6.19438 22.9997 4.43116 22.5411 3.07227 21.6716L2.80566 21.4919L2.80273 21.4899L2.58105 21.3259C1.50813 20.4918 1 19.4724 1 18.4557C1.00008 17.3714 1.57781 16.2726 2.81152 15.3991C4.2089 14.4224 6.0899 13.9059 8.01465 13.9059Z" stroke="#55565A" stroke-width="2"/>
</svg>
