<svg width="24" height="24" viewBox="0 0 24 24" fill="none" xmlns="http://www.w3.org/2000/svg">
<path d="M11.2832 1.25781C11.6528 0.935578 12.2424 0.915467 12.6396 1.19727L12.7168 1.25781L22.4033 9.7041H22.4043C22.797 10.0466 23 10.5039 23 10.9609V21.2334C22.9999 22.1344 22.1822 23 21 23H18C16.8178 23 16.0001 22.1344 16 21.2334V16.6221C16 15.4858 15.0267 14.7002 14 14.7002H10C8.97326 14.7002 8.00004 15.4858 8 16.6221V21.2334C7.99994 22.1344 7.18228 23 6 23H3C1.81772 23 1.00006 22.1344 1 21.2334V10.9609C1.00002 10.561 1.15586 10.1611 1.45801 9.83789L1.5957 9.7041L11.2832 1.25781Z" stroke="#616161" stroke-width="2"/>
</svg>
