<svg width="18" height="18" viewBox="0 0 18 18" fill="none" xmlns="http://www.w3.org/2000/svg">
<path d="M13 5.5C13 5.77614 12.7761 6 12.5 6H9.5C9.22386 6 9 5.77614 9 5.5C9 5.22386 9.22386 5 9.5 5H12.5C12.7761 5 13 5.22386 13 5.5ZM9 9.5C9 9.22386 9.22386 9 9.5 9H12.5C12.7761 9 13 9.22386 13 9.5C13 9.77614 12.7761 10 12.5 10H9.5C9.22386 10 9 9.77614 9 9.5ZM9.81633 16C9.94894 16 10.0761 16.0527 10.1699 16.1464C10.4849 16.4614 10.2618 17 9.81633 17H4C3.44772 17 3 16.5523 3 16V2C3 1.44772 3.44772 1 4 1H14C14.5523 1 15 1.44772 15 2V10.8163C15 10.9489 14.9473 11.0761 14.8536 11.1699C14.5386 11.4849 14 11.2618 14 10.8163V3C14 2.44772 13.5523 2 13 2H5C4.44772 2 4 2.44772 4 3V15C4 15.5523 4.44772 16 5 16H9.81633ZM8 4C8.19416 4.19416 8.19416 4.50896 8 4.70312L7.17578 5.52734C6.80256 5.90057 6.19744 5.90057 5.82422 5.52734L5.5 5.20312C5.30584 5.00896 5.30584 4.69416 5.5 4.5L5.52734 4.47266C5.70641 4.29359 5.99672 4.2936 6.17578 4.47266C6.35484 4.65172 6.64516 4.65172 6.82422 4.47266L7.29687 4C7.49104 3.80584 7.80584 3.80584 8 4ZM8 8C8.19416 8.19416 8.19416 8.50896 8 8.70312L7.17578 9.52734C6.80256 9.90057 6.19744 9.90057 5.82422 9.52734L5.5 9.20312C5.30584 9.00896 5.30584 8.69416 5.5 8.5L5.52734 8.47266C5.70641 8.29359 5.99672 8.2936 6.17578 8.47266C6.35484 8.65172 6.64516 8.65172 6.82422 8.47266L7.29687 8C7.49104 7.80584 7.80584 7.80584 8 8ZM6.17578 12.4727C6.35484 12.6517 6.64516 12.6517 6.82422 12.4727L7.29687 12C7.49104 11.8058 7.80584 11.8058 8 12C8.19416 12.1942 8.19416 12.509 8 12.7031L7.17578 13.5273C6.80256 13.9006 6.19744 13.9006 5.82422 13.5273L5.5 13.2031C5.30584 13.009 5.30584 12.6942 5.5 12.5L5.52734 12.4727C5.70641 12.2936 5.99672 12.2936 6.17578 12.4727ZM16.5 12C16.6942 12.1942 16.6943 12.5091 16.5003 12.7035L13.2084 16.0012C12.8175 16.3929 12.1828 16.3926 11.7923 16.0006L10.7495 14.9539C10.5555 14.7592 10.5558 14.4442 10.7502 14.2498C10.9444 14.0556 11.2592 14.0552 11.4539 14.2488L11.8012 14.5941C12.1876 14.9784 12.8119 14.9778 13.1976 14.5929L15.7965 11.9996C15.9909 11.8056 16.3058 11.8058 16.5 12Z" fill="white"/>
</svg>
