<svg width="13" height="16" viewBox="0 0 13 16" fill="none" xmlns="http://www.w3.org/2000/svg">
<path d="M6.5 0C10.1122 0 13 2.66563 13 6C13 7.15313 12.6276 8.04375 11.981 8.94688L7.18385 15.6656C7.03828 15.8688 6.78776 16 6.5 16C6.21224 16 5.95833 15.8656 5.81615 15.6656L1.01901 8.94688C0.372397 8.04375 0 7.15313 0 6C0 2.66563 2.88776 0 6.5 0ZM6.5 9.33125C8.49401 9.33125 10.1122 7.8375 10.1122 5.99375C10.1122 4.15 8.49401 2.65625 6.5 2.65625C4.50599 2.65625 2.88776 4.15 2.88776 5.99375C2.88776 7.8375 4.50599 9.33125 6.5 9.33125Z" fill="#DE0715"/>
</svg>
