<svg width="38" height="32" viewBox="0 0 38 32" fill="none" xmlns="http://www.w3.org/2000/svg">
<path d="M25.2361 3.09415H6.92999C4.83073 3.257 3.73909 3.9084 2.47943 5.8626C1.59701 8.50855 1.23805 10.0301 2.47943 13.2723C3.25126 14.8338 5.16663 15.8779 5.92232 16.0407L6.34218 21.4148L6.92999 16.0407C9.32795 15.5654 10.1736 14.6534 11.2126 12.4173C12.5496 9.97911 13.5065 9.24751 15.4952 8.79389C19.2763 8.43749 20.7666 9.89957 22.8009 14.1679C24.159 17.0178 23.0798 21.413 20.3656 22.3919H3.823C0.548114 22.5547 -0.374147 24.938 0.128133 28.0916C0.598917 31.0824 2.14348 32 3.823 32H33.5494C36.4045 31.8372 38 30.1272 38 27.4402C38 23.8575 37.0763 23.369 33.5494 22.3919V14.1679C35.5131 15.5826 37.4962 15.715 37.5801 14.1679V5.8626C36.6855 4.51684 35.6186 4.88331 33.5494 5.8626C33.1067 3.98805 32.4871 3.22384 29.7706 3.09415V0H25.2361V3.09415Z" fill="#015FEA"/>
</svg>
